<?xml version="1.0" encoding="utf-8"?>
<!-- Generator: Adobe Illustrator 23.0.6, SVG Export Plug-In . SVG Version: 6.00 Build 0)  -->
<svg version="1.0" id="Layer_1" xmlns="http://www.w3.org/2000/svg" xmlns:xlink="http://www.w3.org/1999/xlink" x="0px" y="0px"
	 viewBox="0 0 1080 1080" style="enable-background:new 0 0 1080 1080;" xml:space="preserve">
<style type="text/css">
	.st0{fill:#F4F4F4;}
	.st1{fill:#FFFFFF;}
	.st2{fill:#CE0002;}
	.st3{fill:#120079;}
	.st4{fill:none;stroke:#08436C;stroke-width:2;stroke-miterlimit:10;}
	.st5{fill:#F18E2E;}
	.st6{fill:#06446C;}
	.st7{fill:url(#SVGID_1_);}
	.st8{fill:url(#SVGID_2_);}
	.st9{fill:url(#SVGID_3_);}
	.st10{fill:#0C2E45;}
	.st11{fill:#155581;}
	.st12{fill:#0E517E;}
	.st13{fill:#585A5E;}
	.st14{fill:#5F6164;}
	.st15{fill:#231F20;}
	.st16{fill:url(#SVGID_4_);}
	.st17{fill:url(#SVGID_5_);}
</style>
<g>
	<g>
		<path class="st3" d="M903.7,676.7c-0.9,7.3-4.6,10.6-11.2,12c-20.7,4.4-41.2,9.3-61.9,13.4c-8,1.6-13,4.5-15.2,12.9
			c-3.3,13-9.2,25.1-15.9,36.7c-3.5,6.1-2.9,10.7,0.9,16.5c10.8,16.6,20.7,33.8,31.6,50.4c4.9,7.4,4,13-1.4,19.6
			c-22.4,27.6-47.7,52.1-75.7,74.1c-6.3,4.9-11.5,4.2-17.5,0.3c-17.4-11.2-35.2-21.8-52.4-33.3c-5.5-3.7-9.5-3.9-15.1-0.9
			c-7.6,4-15.5,8.6-23.7,10c-20.1,3.4-27.9,15.6-30.6,34.6c-2,14-7,27.6-10.6,41.3c-2.2,8.5-6.8,12.9-16.1,13.7
			c-31.9,2.8-63.8,2.8-95.7,0.4c-10.6-0.8-16.3-5-18.7-15.6c-4.1-18.5-9.9-36.7-13.9-55.2c-1.6-7.1-3.9-11.2-11.2-13.5
			c-13.9-4.5-28-9-40.7-16.5c-5.2-3.1-8.7-1-12.8,1.6c-17.5,11.1-35.2,21.7-52.6,33.1c-7.2,4.8-12.7,4.6-19.7-0.8
			c-27.5-21.2-51.5-45.9-74.2-72c-6.4-7.4-6.6-14.2-1.4-22.2c10.8-16.7,21-33.7,31.8-50.3c3.2-4.9,3.3-8.7,0.7-14.1
			c-6.1-12.3-12.3-24.8-16.4-37.9c-2.7-8.6-7.4-11.5-15.3-12.7c-20.5-3.2-40.6-7.8-60.7-13c-7.2-1.9-11.1-4.9-12.2-12.6
			c-3.3-22.7-5.1-45.4-3.1-68.3c19.4,0,38.8,0.4,58.3-0.1c43.2-1.2,78.9-17.8,106.6-51.8c5.6-6.8,8.4-16.1,16.8-20.6
			c-1.9,5-3.6,10-5.1,15c-0.2,0.7-0.4,1.3-0.6,1.9c-11,36.8-13.3,74.2-4.7,112.7C367.1,770.2,485.4,840.9,589,811.6
			c119.4-33.7,179.3-146.8,140-264.5c-0.7-2-1.2-4.1-1.7-6.2c4.6,0.4,6.2,3.9,8.5,7.1c5.7,8.2,11.9,15.6,18.7,22.2
			c0.8,0.8,1.7,1.7,2.6,2.5c0.9,0.8,1.7,1.6,2.6,2.4c1.8,1.6,3.5,3.1,5.3,4.5c14.5,11.6,31,20,49.7,24.5c4.7,1.1,9.5,2.1,14.4,2.7
			c1.8,0.3,3.5,0.5,5.3,0.7c0.5,0.1,0.9,0.1,1.4,0.2c5.8,0.7,11.6,1.4,17.4,1.9c17.9,1.6,36,1.9,54-1.2
			C909.2,631.3,906.6,654,903.7,676.7z"/>
		<path class="st5" d="M907.1,608.4c-26.1,4.6-52.4,1.9-78.1-1.6c-39.3-5.3-70.4-26.2-93.2-58.8c-2.2-3.2-3.9-6.8-8.5-7.1
			c-24-52.6-62.7-89.7-116.5-110.9c-14.8-5.8-30.2-9.7-46.1-10.6c-9.8-0.6-13-4.1-12.9-14.2c0.2-38.4,0.4-76.8,0.4-115.2v-1.4
			c-0.6-54.4-1.3-113.3-1.3-113.3s2.5,0,7.5,0h3.5c5.3,0,12.5-0.1,21.4-0.1c0,2.2,0,4.4,0,6.5c0.2,1.5,0.3,3.1,0.3,4.9
			c-0.1,8.6-0.1,17.2-0.2,25.8c0,0.6,0,1.1,0,1.7c-0.2,35.7-0.2,71.4-0.2,107.1c0,5,0.5,10,0.9,15c0.1,1,0.2,2,0.2,3
			c0.6,0.5,1.2,1.1,1.8,1.6c28-0.5,52.9,10.5,77.4,21.9c7.6,3.5,12.5,5.9,20.8-0.2c16.3-11.8,34.4-21.2,51.6-31.7
			c5.7-3.4,10.5-3.9,16.4,0.4c29.1,20.8,54.8,45.4,78.5,72.2c6.7,7.5,6.5,13.9,1.1,21.9c-10.5,15.8-19.9,32.3-30.7,47.9
			c-5.2,7.5-5.2,13.2-1,21c6.5,12.1,11.9,24.9,17.1,37.6c2.2,5.4,5,7.9,10.9,9c20.7,3.9,41.3,9,62,12.8c10.4,1.9,14.9,7,15,17.4
			C905.7,583.5,908.9,595.8,907.1,608.4z"/>
		<path class="st5" d="M561.7,175.3h-3.3C559.3,175.2,560.4,175.1,561.7,175.3z"/>
		<path class="st5" d="M354.2,535.8c-8.4,4.5-11.2,13.8-16.8,20.7c-27.7,33.9-63.3,50.6-106.6,51.8c-19.4,0.5-38.8,0.1-58.3,0.1
			c-1.4-13.9,1.5-27.5,2.1-41.3c0.4-7.9,5.1-11.3,12.2-12.8c21.1-4.5,42.1-9.3,63.3-13.4c6.2-1.2,9.4-4,11.8-9.9
			c5.4-13.2,11.4-26.1,18-38.7c3.2-6.2,2.9-10.8-0.9-16.5c-11.2-16.9-21.7-34.3-32.8-51.3c-5.1-7.8-4.1-14.1,1.9-20.9
			c23.4-26.1,48.4-50.5,76.2-71.9c6.8-5.2,12.1-6,19.6-1c14.7,9.8,30.2,18.5,45.2,27.8c8.1,5,15.5,12.6,27,0.9c0,34,0,64.5,0,95.1
			c0,2.8-1.5,4.9-3.6,6.6C387.2,481.2,369.4,507.5,354.2,535.8z"/>
		<path class="st3" d="M525.2,550.5c-11.4,1.2-21.2,5.8-28.8,13.2c0.1-64.3,0.2-118.5,0.2-118.5c0.5-0.9,4.9-7.8,13.7-8.9
			c7.7-0.9,13.1,3.3,14,4.1c0,1.2,0.7,43.7,0.7,44.9c0.3,17,0.6,38.7,1,65.1C525.8,550.5,525.5,550.5,525.2,550.5z"/>
		<path class="st3" d="M527.2,781.1c0.1,10.3-1,14.8-13.2,11.9c-9-2.1-13.5-2.9-15.7-5.6c-3.4-4.2-2.5-21.6-2.2-16.2
			c0,0,0.1-30.5,0.1-72.8h30.8C526.9,725.9,527,753.5,527.2,781.1z"/>
		<path class="st3" d="M553.2,557c-0.3-0.2-0.5-0.3-0.8-0.5c0.2-78.9,0.3-118.3,0.3-118.3l29.8,0.9c0,0,0.1,50,0.2,111.5
			c-0.5-0.1-1-0.1-1.5-0.2c-1.6-0.2-3.1-0.3-4.7-0.3C568.1,550.3,560.1,552.6,553.2,557z"/>
		<path class="st3" d="M555.1,794.4c-4.6-2.1-2.6-6.8-2.6-10.3c-0.1-28.4-0.3-56.9-0.4-85.3h26.6v-0.4h4.2
			c0.1,45.4,0.2,78.3,0.2,78.3c0.9-0.8,1.4-1.2,1.5-1.2C585.7,775.5,564,798.4,555.1,794.4z"/>
		<path class="st5" d="M439.7,487.2c-0.7-134.4-1.8-365.6-1.8-365.6l0,0c0,0,11.2-0.1,32.5-0.3c0.3,122.8,0.6,245.5,0.9,368.3
			c-0.9,0.9-7,6.7-16.2,6C445.7,495,440.5,488.2,439.7,487.2z"/>
		<path class="st5" d="M497.3,420.7c-1.1-133.1-2.4-299.1-2.4-299.1l0,0c0,0,11.4-0.1,32.5-0.2c0.3,98.8,0.6,197.6,0.9,296.3
			c-3.6-0.9-9-1.7-15.6-1.1C505.9,417.2,500.7,419.1,497.3,420.7z"/>
		<path class="st5" d="M584.2,336.3c-0.4-5-0.9-10-0.9-15c0-35.7,0-71.4,0.2-107.1C583.8,254.8,584,295.6,584.2,336.3z"/>
		<path class="st5" d="M600.5,327.2c-0.6-26.7-1.2-53.4-1.8-80l0,0c0,0,0,0,0,0c0,0,11.2-0.1,32.5-0.3c-0.3,29.1-0.5,58.1-0.8,87.2
			c-6.2-2.4-13.7-4.7-22.2-6C605.5,327.6,602.9,327.4,600.5,327.2z"/>
		<path class="st3" d="M608.1,561.9c-0.5-61.5-1.3-108.8-1.3-108.8s1.8,0.2,4.4,0.6c2.6,0.5,6,1.3,9.1,2.5
			c7.1,2.8,13.1,8.1,13.1,8.1c0,0,0.9,38.5,1.9,87.4h-4c-9.1,0-16.7,6.7-18,15.5C611.8,565.4,610.1,563.6,608.1,561.9z"/>
		<path class="st3" d="M639.8,753.1c0,0-18,26.8-27.6,26.8H612c-5.8-0.3-3.5-4.9-3.5-7.7c-0.1-24.6-0.1-49.3-0.1-73.9h5.4
			c5.6,0,14.3,0.1,24.9,0.7C639.4,731,639.8,753.1,639.8,753.1z"/>
		<path class="st3" d="M448.9,698.4c8-0.2,15.4-1.9,21.8-4.8c-0.1,23.2-0.1,47.6-0.1,72.5v13.5c-10.6-2.1-18.1-8.1-26.2-12.5
			c-1.2-0.6-2.1-1.4-2.7-2.3c-2.3-3.1-1.8-6.9-1.8-7.7c0.2-2.3,0.3-23.5,0.3-58.6C443.2,698.5,446.1,698.5,448.9,698.4z"/>
		<path class="st3" d="M471.6,502.3c0,0-0.2,20.3-0.4,53.7c-4.6-2.1-9.7-3.5-15.1-4.2c-5.4-0.7-10.7-1-16-1.2c0-16,0-32.7-0.1-49.9
			c2.6,1.5,7.7,4,14.7,4.6C462.7,505.9,468.7,503.6,471.6,502.3z"/>
		<path class="st14" d="M586.2,340.9c-0.6-0.6-1.2-1.1-1.8-1.6C585.3,339.5,585.9,340.1,586.2,340.9z"/>
	</g>
	<g>
		<path class="st3" d="M481.5,649.6c-0.4,4.9-1.5,9.3-3.3,13.2c-1.8,4-4.3,7.4-7.4,10.2c-5.6,4.9-13.1,7.8-22.2,8
			c-2.8,0.1-5.5,0.1-8.3,0.2c-23.2,0.4-46.4,0.1-69.6-0.2c-1.8,0-5.2-2.9-5.3-4.5c-0.3-24.1-0.2-48.3-0.1-72.4c0-1.6,0-3.1,0-4.7
			c0-0.7,0.5-1.4,0.9-2.5h18.9V660c18.9,0,37.1,0.5,55.1,0c2.8-0.1,5.6-0.2,8.4-0.3c9-0.4,12.8-6.7,12.4-14.4
			c-0.5-8-5.2-12.7-14.8-13.1c-2-0.1-4.1-0.1-6.1-0.2c-12.1-0.3-24.3-0.1-36.4-0.1h-9.9v-15.6c15.3,0,30.4-0.9,45.3-0.5
			c0.3,0,0.7,0,1,0c4.8,0.2,9.6,0.5,14.4,1c6.6,0.7,12.1,3,16.3,6.5c2.9,2.4,5.2,5.2,7,8.4c0.1,0.2,0.3,0.4,0.4,0.6
			C480.9,637.4,482,643.4,481.5,649.6z"/>
		<path class="st3" d="M479.9,596.1c0,2.9-0.4,5.8-1.1,8.9c-0.1,0.3-0.2,0.6-0.2,0.9c-0.2,0.5-0.3,1-0.4,1.4
			c-1.7,5.5-3.7,8.1-7.2,8.3c-2,0.1-4.4-0.5-7.7-1.8c-1.9-0.8-3.9-1.5-6.1-2.3c0.2-1.2,0.3-2.2,0.5-3.2c0.9-3.1,1.4-5.9,1.3-8.3
			c-0.2-7.5-5.3-11.6-15.7-12.2c-1.1-0.1-2.1-0.1-3.2-0.2c-12.3-0.5-24.6-0.1-36.9-0.2H402c-2.5,0-5,0-8.2,0v-20.3
			c2.8,0,5.6,0,8.2,0c2,0,3.9,0,5.8,0.1c10.8,0.3,21.6-0.1,32.3,0.4c4.7,0.2,9.3,0.5,14,1c7,0.8,12.7,3.4,17,7.3
			C476.7,580.9,479.8,588.1,479.9,596.1z"/>
		<rect x="365.6" y="567.7" class="st5" width="19.3" height="19.2"/>
		<path class="st3" d="M611.2,650.1L611.2,650.1c0,10.3-0.1,20.6-0.1,30.8h-21.3c0.1-24.2,0.5-47.6-0.4-70.9
			c-0.3-7.3-2.8-12-6.6-14.4c-2.2-1.4-4.9-2-7.8-1.8c-8,0.6-12.7,6.7-13.1,19.2c-0.5,18.5-0.3,36.9-0.3,55.4v12.8h-16.8V681
			c0-4.6,0-8.5,0-12.4c0-18.5,0.3-36.9-0.3-55.4c-0.4-12.5-5.2-18.6-13.1-19.2c-1.7-0.1-3.3,0-4.8,0.5c-5.4,1.5-9.3,6.6-9.6,15.7
			c-0.8,23.3-0.5,46.7-0.3,70.9h-21.3c0-4.9-0.1-9.8-0.1-14.7c-0.1-12.6-0.1-25.2,0.1-37.8c0.1-6.1,0.1-12.2,0.3-18.3
			c0-0.9,0.1-1.7,0.1-2.5c0.1-2.2,0.3-4.3,0.6-6.3c0.2-1.3,0.4-2.6,0.7-3.8c3.7-17.4,14.4-28.3,29.2-30.2c0.3-0.1,0.5-0.1,0.8-0.1
			c10-1,19.2,3.3,25.4,12.1v0.1c0.3,0.4,0.6,0.8,0.8,1.3c6.2-9.7,15.8-14.5,26.2-13.4c1.1,0.1,2.2,0.3,3.3,0.5
			c12.3,2.5,21.4,11.5,25.6,25.4v0.1c1.5,5.1,2.4,10.7,2.5,17C611.1,623.5,611.2,636.8,611.2,650.1z"/>
		<path class="st5" d="M703.8,622.9c-5-4.3-11.6-7.2-19.8-8.5l25.3-28.8v-16.9h-78.9v20.9h47.9l-23.1,26.2v17.2h11.9
			c7.4,0,12.8,1.2,16.1,3.7c3.3,2.5,5,5.9,5,10.1c0,4.5-1.9,8-5.6,10.6c-3.7,2.6-8.9,3.8-15.4,3.8c-5.8,0-11.5-0.9-17.2-2.7
			c-4.5-1.4-8.6-3.3-12.2-5.6c-0.9-0.6-1.8-1.2-2.7-1.8l-6.6,13l-3.5,7c1.1,0.8,2.3,1.6,3.5,2.3c3,1.8,6.3,3.4,9.9,4.7
			c2,0.8,4,1.4,6.2,2c7.7,2.1,15.5,3.1,23.3,3.1c10.7,0,19.5-1.7,26.4-5.2c6.9-3.4,12-7.9,15.3-13.5c3.3-5.5,5-11.4,5-17.8
			C714.4,637.2,710.9,629.2,703.8,622.9z"/>
	</g>
</g>
</svg>
